<?xml version="1.0" encoding="UTF-8"?>
<svg xmlns="http://www.w3.org/2000/svg" xmlns:xlink="http://www.w3.org/1999/xlink" width="2452.28pt" height="2122.5pt" viewBox="0 0 2452.28 2122.5" version="1.1">
<defs>
<clipPath id="clip1">
  <path d="M 0 0 L 2452.28125 0 L 2452.28125 1668 L 0 1668 Z M 0 0 "/>
</clipPath>
<clipPath id="clip2">
  <path d="M 626 1864 L 883 1864 L 883 2122.5 L 626 2122.5 Z M 626 1864 "/>
</clipPath>
<clipPath id="clip3">
  <path d="M 1080 1864 L 1337 1864 L 1337 2122.5 L 1080 2122.5 Z M 1080 1864 "/>
</clipPath>
<clipPath id="clip4">
  <path d="M 1651 1864 L 1905 1864 L 1905 2122.5 L 1651 2122.5 Z M 1651 1864 "/>
</clipPath>
</defs>
<g id="surface1">
<g clip-path="url(#clip1)" clip-rule="nonzero">
<path style=" stroke:none;fill-rule:nonzero;fill:rgb(94.099426%,32.499695%,24.699402%);fill-opacity:1;" d="M 1829.03125 535.558594 L 2060.878906 862.359375 L 2349.101563 783.980469 L 2099.050781 471.789063 Z M 96.542969 139.230469 L 680.488281 1237.730469 L 1164.300781 1106.160156 L 548.039063 78.46875 Z M 1280.328125 1152.855469 L 1539.101563 1584.402344 L 2293.230469 1320.335938 L 2029.808594 949.039063 Z M 1522.558594 1667.945313 C 1509.589844 1667.945313 1497.148438 1661.242188 1490.171875 1649.609375 L 1204.640625 1173.4375 L 671.214844 1318.488281 C 654.191406 1323.136719 636.257813 1315.351563 627.976563 1299.785156 L 4.414063 126.769531 C -1.382813 115.859375 -1.476563 102.800781 4.164063 91.808594 C 9.804688 80.820313 20.46875 73.28125 32.714844 71.628906 L 562.601563 0.328125 C 577.546875 -1.679688 592.253906 5.398438 600.011719 18.328125 L 1239.988281 1085.578125 L 1983.28125 883.460938 L 1735.03125 533.550781 C 1727.769531 523.300781 1726.070313 510.121094 1730.5 498.371094 C 1734.941406 486.628906 1744.921875 477.851563 1757.140625 474.96875 L 2104.921875 392.828125 C 2119.109375 389.46875 2133.949219 394.589844 2143.058594 405.96875 L 2444.011719 781.710938 C 2451.960938 791.640625 2454.371094 804.910156 2450.429688 817 C 2446.488281 829.101563 2436.730469 838.390625 2424.449219 841.730469 L 2107.410156 927.949219 L 2383.808594 1317.542969 C 2390.679688 1327.21875 2392.601563 1339.550781 2389 1350.847656 C 2385.390625 1362.144531 2376.691406 1371.097656 2365.5 1375.015625 L 1535.019531 1665.820313 C 1530.921875 1667.261719 1526.710938 1667.945313 1522.558594 1667.945313 "/>
</g>
<path style=" stroke:none;fill-rule:nonzero;fill:rgb(42.698669%,42.698669%,42.698669%);fill-opacity:1;" d="M 540.554688 2116.1875 L 572.117188 2116.1875 L 572.117188 1776.242188 L 540.554688 1776.242188 Z M 540.554688 2116.1875 "/>
<g clip-path="url(#clip2)" clip-rule="nonzero">
<path style=" stroke:none;fill-rule:nonzero;fill:rgb(42.698669%,42.698669%,42.698669%);fill-opacity:1;" d="M 755.953125 1895.039063 C 738.390625 1895.039063 722.175781 1899.355469 707.3125 1907.988281 C 692.449219 1916.621094 680.628906 1928.746094 671.851563 1944.355469 C 663.066406 1959.96875 658.679688 1976.480469 658.679688 1993.890625 C 658.679688 2011.15625 663.105469 2027.671875 671.964844 2043.429688 C 680.816406 2059.1875 692.71875 2071.464844 707.648438 2080.242188 C 722.589844 2089.027344 738.609375 2093.417969 755.726563 2093.417969 C 772.984375 2093.417969 789.351563 2089.0625 804.816406 2080.355469 C 820.273438 2071.648438 832.167969 2059.863281 840.503906 2045.003906 C 848.828125 2030.144531 852.996094 2013.40625 852.996094 1994.789063 C 852.996094 1966.421875 843.648438 1942.703125 824.960938 1923.640625 C 806.273438 1904.574219 783.273438 1895.039063 755.953125 1895.039063 M 882.078125 1870.921875 L 882.078125 2116.1875 L 850.96875 2116.1875 L 850.96875 2074.03125 C 837.742188 2090.113281 822.902344 2102.210938 806.445313 2110.328125 C 789.988281 2118.441406 771.992188 2122.5 752.457031 2122.5 C 717.742188 2122.5 688.097656 2109.914063 663.527344 2084.734375 C 638.953125 2059.570313 626.667969 2028.945313 626.667969 1992.875 C 626.667969 1957.5625 639.066406 1927.355469 663.863281 1902.253906 C 688.660156 1877.15625 718.492188 1864.605469 753.359375 1864.605469 C 773.496094 1864.605469 791.71875 1868.890625 808.023438 1877.457031 C 824.328125 1886.023438 838.644531 1898.871094 850.96875 1916.003906 L 850.96875 1870.921875 "/>
</g>
<path style=" stroke:none;fill-rule:nonzero;fill:rgb(42.698669%,42.698669%,42.698669%);fill-opacity:1;" d="M 941.140625 1870.921875 L 973.375 1870.921875 L 973.375 1906.761719 C 982.992188 1892.640625 993.136719 1882.078125 1003.808594 1875.089844 C 1014.480469 1868.101563 1025.601563 1864.609375 1037.171875 1864.609375 C 1045.890625 1864.609375 1055.210938 1867.390625 1065.121094 1872.949219 L 1048.671875 1899.550781 C 1042.058594 1896.695313 1036.488281 1895.265625 1031.988281 1895.265625 C 1021.46875 1895.265625 1011.320313 1899.585938 1001.550781 1908.226563 C 991.785156 1916.871094 984.347656 1930.285156 979.234375 1948.464844 C 975.328125 1962.441406 973.375 1990.699219 973.375 2033.226563 L 973.375 2116.1875 L 941.140625 2116.1875 "/>
<g clip-path="url(#clip3)" clip-rule="nonzero">
<path style=" stroke:none;fill-rule:nonzero;fill:rgb(42.698669%,42.698669%,42.698669%);fill-opacity:1;" d="M 1210.191406 1895.039063 C 1192.628906 1895.039063 1176.410156 1899.355469 1161.550781 1907.988281 C 1146.679688 1916.621094 1134.859375 1928.746094 1126.089844 1944.355469 C 1117.300781 1959.96875 1112.921875 1976.480469 1112.921875 1993.890625 C 1112.921875 2011.15625 1117.339844 2027.671875 1126.199219 2043.429688 C 1135.050781 2059.1875 1146.949219 2071.464844 1161.890625 2080.242188 C 1176.820313 2089.027344 1192.839844 2093.417969 1209.960938 2093.417969 C 1227.21875 2093.417969 1243.589844 2089.0625 1259.050781 2080.355469 C 1274.511719 2071.648438 1286.398438 2059.863281 1294.738281 2045.003906 C 1303.058594 2030.144531 1307.230469 2013.40625 1307.230469 1994.789063 C 1307.230469 1966.421875 1297.890625 1942.703125 1279.199219 1923.640625 C 1260.511719 1904.574219 1237.511719 1895.039063 1210.191406 1895.039063 M 1336.308594 1870.921875 L 1336.308594 2116.1875 L 1305.199219 2116.1875 L 1305.199219 2074.03125 C 1291.980469 2090.113281 1277.140625 2102.210938 1260.679688 2110.328125 C 1244.230469 2118.441406 1226.230469 2122.5 1206.691406 2122.5 C 1171.980469 2122.5 1142.328125 2109.914063 1117.761719 2084.734375 C 1093.191406 2059.570313 1080.898438 2028.945313 1080.898438 1992.875 C 1080.898438 1957.5625 1093.300781 1927.355469 1118.101563 1902.253906 C 1142.898438 1877.15625 1172.730469 1864.605469 1207.589844 1864.605469 C 1227.730469 1864.605469 1245.949219 1868.890625 1262.261719 1877.457031 C 1278.570313 1886.023438 1292.878906 1898.871094 1305.199219 1916.003906 L 1305.199219 1870.921875 "/>
</g>
<path style=" stroke:none;fill-rule:nonzero;fill:rgb(42.698669%,42.698669%,42.698669%);fill-opacity:1;" d="M 1384.101563 1870.921875 L 1417.691406 1870.921875 L 1500.019531 2049.707031 L 1581.351563 1870.921875 L 1615.160156 1870.921875 L 1502.898438 2116.1875 L 1497.039063 2116.1875 "/>
<g clip-path="url(#clip4)" clip-rule="nonzero">
<path style=" stroke:none;fill-rule:nonzero;fill:rgb(42.698669%,42.698669%,42.698669%);fill-opacity:1;" d="M 1869.671875 1968.753906 C 1865.460938 1951.925781 1859.328125 1938.472656 1851.28125 1928.402344 C 1843.21875 1918.339844 1832.578125 1910.222656 1819.339844 1904.058594 C 1806.089844 1897.894531 1792.179688 1894.816406 1777.589844 1894.816406 C 1753.511719 1894.816406 1732.820313 1902.558594 1715.519531 1918.03125 C 1702.871094 1929.304688 1693.320313 1946.210938 1686.851563 1968.753906 Z M 1869.671875 2034.804688 L 1896.269531 2048.78125 C 1887.550781 2065.914063 1877.46875 2079.742188 1866.039063 2090.261719 C 1854.609375 2100.78125 1841.738281 2108.785156 1827.460938 2114.273438 C 1813.160156 2119.757813 1796.988281 2122.5 1778.941406 2122.5 C 1738.929688 2122.5 1707.640625 2109.386719 1685.078125 2083.160156 C 1662.511719 2056.933594 1651.230469 2027.289063 1651.230469 1994.226563 C 1651.230469 1963.117188 1660.78125 1935.390625 1679.890625 1911.046875 C 1704.101563 1880.085938 1736.519531 1864.609375 1777.140625 1864.609375 C 1818.949219 1864.609375 1852.339844 1880.464844 1877.320313 1912.171875 C 1895.058594 1934.566406 1904.089844 1962.523438 1904.390625 1996.03125 L 1683.691406 1996.03125 C 1684.300781 2024.519531 1693.398438 2047.871094 1711 2066.089844 C 1728.609375 2084.308594 1750.351563 2093.414063 1776.230469 2093.414063 C 1788.71875 2093.414063 1800.859375 2091.242188 1812.691406 2086.90625 C 1824.488281 2082.566406 1834.539063 2076.796875 1842.808594 2069.609375 C 1851.089844 2062.425781 1860.039063 2050.824219 1869.671875 2034.804688 "/>
</g>
<path style=" stroke:none;fill-rule:nonzero;fill:rgb(42.698669%,42.698669%,42.698669%);fill-opacity:1;" d="M 1958.488281 2116.1875 L 1990.050781 2116.1875 L 1990.050781 1776.242188 L 1958.488281 1776.242188 Z M 1958.488281 2116.1875 "/>
</g>
</svg>
